<svg xmlns="http://www.w3.org/2000/svg" viewBox="0 0 64 64" role="img" aria-label="Bio Marketing Studio">
  <defs>
    <linearGradient id="g" x1="0" y1="0" x2="1" y2="1">
      <stop offset="0%" stop-color="#1e3a8a" />
      <stop offset="100%" stop-color="#7c3aed" />
    </linearGradient>
  </defs>
  <rect width="64" height="64" rx="14" fill="url(#g)" />
  <path d="M21 45V19h13c7 0 11 3.8 11 9.4 0 3.4-1.8 6.4-5.1 7.9 2.4 1.2 3.8 3.3 3.8 6.2 0 5.2-4.3 8.5-11.3 8.5H21Zm8-18.8h4.2c2.3 0 3.7-1.2 3.7-3.1 0-2-1.4-3.2-3.7-3.2H29v6.3Zm0 12h5.1c2.6 0 4.1-1.2 4.1-3.4 0-2.1-1.6-3.4-4.1-3.4H29v6.8Z" fill="#fff" />
</svg>
